<?xml version="1.0" encoding="utf-8" standalone="no"?>
<!DOCTYPE svg PUBLIC "-//W3C//DTD SVG 1.1//EN"
  "http://www.w3.org/Graphics/SVG/1.1/DTD/svg11.dtd">
<svg xmlns:xlink="http://www.w3.org/1999/xlink" width="748.8pt" height="345.6pt" viewBox="0 0 748.8 345.6" xmlns="http://www.w3.org/2000/svg" version="1.1">
 <metadata>
  <rdf:RDF xmlns:dc="http://purl.org/dc/elements/1.1/" xmlns:cc="http://creativecommons.org/ns#" xmlns:rdf="http://www.w3.org/1999/02/22-rdf-syntax-ns#">
   <cc:Work>
    <dc:type rdf:resource="http://purl.org/dc/dcmitype/StillImage"/>
    <dc:date>2026-10-05T00:44:28.814709</dc:date>
    <dc:format>image/svg+xml</dc:format>
    <dc:creator>
     <cc:Agent>
      <dc:title>Matplotlib v3.11.2, https://matplotlib.org/</dc:title>
     </cc:Agent>
    </dc:creator>
   </cc:Work>
  </rdf:RDF>
 </metadata>
 <defs>
  <style type="text/css">*{stroke-linejoin: round; stroke-linecap: butt}</style>
 </defs>
 <g id="figure_1">
  <g id="patch_1">
   <path d="M 0 345.6 
L 748.8 345.6 
L 748.8 0 
L 0 0 
z
" style="fill: #ffffff"/>
  </g>
  <g id="axes_1">
   <g id="patch_2">
    <path d="M 89.856 266.112 
L 718.848 266.112 
L 718.848 69.12 
L 89.856 69.12 
z
" style="fill: #ffffff"/>
   </g>
   <g id="patch_3">
    <path d="M 89.856 78.074182 
L 89.856 78.074182 
L 89.856 97.83074 
L 89.856 97.83074 
z
" clip-path="url(#pe0e31dbe98)" style="fill: #318680"/>
   </g>
   <g id="patch_4">
    <path d="M 89.856 78.074182 
L 623.131826 78.074182 
L 623.131826 97.83074 
L 89.856 97.83074 
z
" clip-path="url(#pe0e31dbe98)" style="fill: #bc6a5d"/>
   </g>
   <g id="patch_5">
    <path d="M 623.131826 78.074182 
L 623.131826 78.074182 
L 623.131826 97.83074 
L 623.131826 97.83074 
z
" clip-path="url(#pe0e31dbe98)" style="fill: #dcb460"/>
   </g>
   <g id="patch_6">
    <path d="M 89.856 109.939598 
L 623.131826 109.939598 
L 623.131826 129.696155 
L 89.856 129.696155 
z
" clip-path="url(#pe0e31dbe98)" style="fill: #318680"/>
   </g>
   <g id="patch_7">
    <path d="M 623.131826 109.939598 
L 623.131826 109.939598 
L 623.131826 129.696155 
L 623.131826 129.696155 
z
" clip-path="url(#pe0e31dbe98)" style="fill: #bc6a5d"/>
   </g>
   <g id="patch_8">
    <path d="M 623.131826 109.939598 
L 623.131826 109.939598 
L 623.131826 129.696155 
L 623.131826 129.696155 
z
" clip-path="url(#pe0e31dbe98)" style="fill: #dcb460"/>
   </g>
   <g id="patch_9">
    <path d="M 89.856 141.805013 
L 513.741913 141.805013 
L 513.741913 161.561571 
L 89.856 161.561571 
z
" clip-path="url(#pe0e31dbe98)" style="fill: #318680"/>
   </g>
   <g id="patch_10">
    <path d="M 513.741913 141.805013 
L 582.110609 141.805013 
L 582.110609 161.561571 
L 513.741913 161.561571 
z
" clip-path="url(#pe0e31dbe98)" style="fill: #bc6a5d"/>
   </g>
   <g id="patch_11">
    <path d="M 582.110609 141.805013 
L 623.131826 141.805013 
L 623.131826 161.561571 
L 582.110609 161.561571 
z
" clip-path="url(#pe0e31dbe98)" style="fill: #dcb460"/>
   </g>
   <g id="patch_12">
    <path d="M 89.856 173.670429 
L 486.394435 173.670429 
L 486.394435 193.426987 
L 89.856 193.426987 
z
" clip-path="url(#pe0e31dbe98)" style="fill: #318680"/>
   </g>
   <g id="patch_13">
    <path d="M 486.394435 173.670429 
L 609.458087 173.670429 
L 609.458087 193.426987 
L 486.394435 193.426987 
z
" clip-path="url(#pe0e31dbe98)" style="fill: #bc6a5d"/>
   </g>
   <g id="patch_14">
    <path d="M 609.458087 173.670429 
L 623.131826 173.670429 
L 623.131826 193.426987 
L 609.458087 193.426987 
z
" clip-path="url(#pe0e31dbe98)" style="fill: #dcb460"/>
   </g>
   <g id="patch_15">
    <path d="M 89.856 205.535845 
L 623.131826 205.535845 
L 623.131826 225.292402 
L 89.856 225.292402 
z
" clip-path="url(#pe0e31dbe98)" style="fill: #318680"/>
   </g>
   <g id="patch_16">
    <path d="M 623.131826 205.535845 
L 623.131826 205.535845 
L 623.131826 225.292402 
L 623.131826 225.292402 
z
" clip-path="url(#pe0e31dbe98)" style="fill: #bc6a5d"/>
   </g>
   <g id="patch_17">
    <path d="M 623.131826 205.535845 
L 623.131826 205.535845 
L 623.131826 225.292402 
L 623.131826 225.292402 
z
" clip-path="url(#pe0e31dbe98)" style="fill: #dcb460"/>
   </g>
   <g id="patch_18">
    <path d="M 89.856 237.40126 
L 582.110609 237.40126 
L 582.110609 257.157818 
L 89.856 257.157818 
z
" clip-path="url(#pe0e31dbe98)" style="fill: #318680"/>
   </g>
   <g id="patch_19">
    <path d="M 582.110609 237.40126 
L 623.131826 237.40126 
L 623.131826 257.157818 
L 582.110609 257.157818 
z
" clip-path="url(#pe0e31dbe98)" style="fill: #bc6a5d"/>
   </g>
   <g id="patch_20">
    <path d="M 623.131826 237.40126 
L 623.131826 237.40126 
L 623.131826 257.157818 
L 623.131826 257.157818 
z
" clip-path="url(#pe0e31dbe98)" style="fill: #dcb460"/>
   </g>
   <g id="matplotlib.axis_1">
    <g id="xtick_1">
     <g id="line2d_1"/>
     <g id="text_1">
      <text style="font-size: 10px; font-family: 'DejaVu Sans'; text-anchor: middle" x="89.856" y="277.209656" transform="rotate(-0 89.856 277.209656)">0</text>
     </g>
    </g>
    <g id="xtick_2">
     <g id="line2d_2"/>
     <g id="text_2">
      <text style="font-size: 10px; font-family: 'DejaVu Sans'; text-anchor: middle" x="267.614609" y="277.209656" transform="rotate(-0 267.614609 277.209656)">26</text>
     </g>
    </g>
    <g id="xtick_3">
     <g id="line2d_3"/>
     <g id="text_3">
      <text style="font-size: 10px; font-family: 'DejaVu Sans'; text-anchor: middle" x="445.373217" y="277.209656" transform="rotate(-0 445.373217 277.209656)">52</text>
     </g>
    </g>
    <g id="xtick_4">
     <g id="line2d_4"/>
     <g id="text_4">
      <text style="font-size: 10px; font-family: 'DejaVu Sans'; text-anchor: middle" x="623.131826" y="277.209656" transform="rotate(-0 623.131826 277.209656)">78</text>
     </g>
    </g>
    <g id="text_5">
     <text style="font-size: 10px; font-family: 'DejaVu Sans'; text-anchor: start" x="89.856" y="291.210438" transform="rotate(-0 89.856 291.210438)">Initial previews per hypothetical exit (78 each)</text>
    </g>
   </g>
   <g id="matplotlib.axis_2">
    <g id="ytick_1">
     <g id="line2d_5"/>
     <g id="text_6">
      <text style="font-size: 10px; font-family: 'DejaVu Sans'; text-anchor: end" x="86.356" y="91.751679" transform="rotate(-0 86.356 91.751679)">x−  original</text>
     </g>
    </g>
    <g id="ytick_2">
     <g id="line2d_6"/>
     <g id="text_7">
      <text style="font-size: 10px; font-family: 'DejaVu Sans'; text-anchor: end" x="86.356" y="123.616705" transform="rotate(-0 86.356 123.616705)">x+</text>
     </g>
    </g>
    <g id="ytick_3">
     <g id="line2d_7"/>
     <g id="text_8">
      <text style="font-size: 10px; font-family: 'DejaVu Sans'; text-anchor: end" x="86.356" y="155.48212" transform="rotate(-0 86.356 155.48212)">y−</text>
     </g>
    </g>
    <g id="ytick_4">
     <g id="line2d_8"/>
     <g id="text_9">
      <text style="font-size: 10px; font-family: 'DejaVu Sans'; text-anchor: end" x="86.356" y="187.347536" transform="rotate(-0 86.356 187.347536)">y+</text>
     </g>
    </g>
    <g id="ytick_5">
     <g id="line2d_9"/>
     <g id="text_10">
      <text style="font-size: 10px; font-family: 'DejaVu Sans'; text-anchor: end" x="86.356" y="219.212952" transform="rotate(-0 86.356 219.212952)">z−</text>
     </g>
    </g>
    <g id="ytick_6">
     <g id="line2d_10"/>
     <g id="text_11">
      <text style="font-size: 10px; font-family: 'DejaVu Sans'; text-anchor: end" x="86.356" y="251.078367" transform="rotate(-0 86.356 251.078367)">z+</text>
     </g>
    </g>
    <g id="text_12">
     <text style="font-size: 10px; font-family: 'DejaVu Sans'; text-anchor: middle" x="21.920844" y="167.616" transform="rotate(-90 21.920844 167.616)">Outward source-axis exit</text>
    </g>
   </g>
   <g id="patch_21">
    <path d="M 89.856 266.112 
L 718.848 266.112 
" style="fill: none; stroke: #c4cdcf; stroke-width: 0.8; stroke-linejoin: miter; stroke-linecap: square"/>
   </g>
   <g id="text_13">
    <text style="font-size: 10px; font-family: 'DejaVu Sans'; text-anchor: middle; fill: #ffffff" x="356.493913" y="90.550117" transform="rotate(-0 356.493913 90.550117)">78</text>
   </g>
   <g id="text_14">
    <text style="font-size: 10px; font-family: 'DejaVu Sans'; text-anchor: start; fill: #364348" x="643.642435" y="90.550117" transform="rotate(-0 643.642435 90.550117)">100.00%</text>
   </g>
   <g id="text_15">
    <text style="font-size: 10px; font-family: 'DejaVu Sans'; text-anchor: middle; fill: #ffffff" x="356.493913" y="122.415533" transform="rotate(-0 356.493913 122.415533)">78</text>
   </g>
   <g id="text_16">
    <text style="font-size: 10px; font-family: 'DejaVu Sans'; text-anchor: start; fill: #364348" x="643.642435" y="122.415533" transform="rotate(-0 643.642435 122.415533)">100.00%</text>
   </g>
   <g id="text_17">
    <text style="font-size: 10px; font-family: 'DejaVu Sans'; text-anchor: middle; fill: #ffffff" x="301.798957" y="154.280948" transform="rotate(-0 301.798957 154.280948)">62</text>
   </g>
   <g id="text_18">
    <text style="font-size: 10px; font-family: 'DejaVu Sans'; text-anchor: middle; fill: #ffffff" x="547.926261" y="154.280948" transform="rotate(-0 547.926261 154.280948)">10</text>
   </g>
   <g id="text_19">
    <text style="font-size: 10px; font-family: 'DejaVu Sans'; text-anchor: middle; fill: #302b20" x="602.621217" y="154.280948" transform="rotate(-0 602.621217 154.280948)">6</text>
   </g>
   <g id="text_20">
    <text style="font-size: 10px; font-family: 'DejaVu Sans'; text-anchor: start; fill: #364348" x="643.642435" y="154.280948" transform="rotate(-0 643.642435 154.280948)">0.00%</text>
   </g>
   <g id="text_21">
    <text style="font-size: 10px; font-family: 'DejaVu Sans'; text-anchor: middle; fill: #ffffff" x="288.125217" y="186.146364" transform="rotate(-0 288.125217 186.146364)">58</text>
   </g>
   <g id="text_22">
    <text style="font-size: 10px; font-family: 'DejaVu Sans'; text-anchor: middle; fill: #ffffff" x="547.926261" y="186.146364" transform="rotate(-0 547.926261 186.146364)">18</text>
   </g>
   <g id="text_23">
    <text style="font-size: 10px; font-family: 'DejaVu Sans'; text-anchor: middle; fill: #302b20" x="616.294957" y="186.146364" transform="rotate(-0 616.294957 186.146364)">2</text>
   </g>
   <g id="text_24">
    <text style="font-size: 10px; font-family: 'DejaVu Sans'; text-anchor: start; fill: #364348" x="643.642435" y="186.146364" transform="rotate(-0 643.642435 186.146364)">99.87%</text>
   </g>
   <g id="text_25">
    <text style="font-size: 10px; font-family: 'DejaVu Sans'; text-anchor: middle; fill: #ffffff" x="356.493913" y="218.01178" transform="rotate(-0 356.493913 218.01178)">78</text>
   </g>
   <g id="text_26">
    <text style="font-size: 10px; font-family: 'DejaVu Sans'; text-anchor: start; fill: #364348" x="643.642435" y="218.01178" transform="rotate(-0 643.642435 218.01178)">100.00%</text>
   </g>
   <g id="text_27">
    <text style="font-size: 10px; font-family: 'DejaVu Sans'; text-anchor: middle; fill: #ffffff" x="335.983304" y="249.877196" transform="rotate(-0 335.983304 249.877196)">72</text>
   </g>
   <g id="text_28">
    <text style="font-size: 10px; font-family: 'DejaVu Sans'; text-anchor: middle; fill: #ffffff" x="602.621217" y="249.877196" transform="rotate(-0 602.621217 249.877196)">6</text>
   </g>
   <g id="text_29">
    <text style="font-size: 10px; font-family: 'DejaVu Sans'; text-anchor: start; fill: #364348" x="643.642435" y="249.877196" transform="rotate(-0 643.642435 249.877196)">0.00%</text>
   </g>
   <g id="text_30">
    <text style="font-size: 9px; font-family: 'DejaVu Sans'; fill: #364348" transform="translate(643.642435 53.375194)">Target in</text>
    <text style="font-size: 9px; font-family: 'DejaVu Sans'; fill: #364348" transform="translate(643.642435 64.176952)">actor crop</text>
   </g>
  </g>
  <g id="text_31">
   <text style="font-weight: 700; font-size: 14px; font-family: 'DejaVu Sans'; text-anchor: start" x="89.856" y="17.549812" transform="rotate(-0 89.856 17.549812)">PAT25: initial geometry outcomes at six existing exits</text>
  </g>
  <g id="text_32">
   <text style="font-size: 10px; font-family: 'DejaVu Sans'; text-anchor: start; fill: #58656a" x="89.856" y="31.104" transform="rotate(-0 89.856 31.104)">Same support and two generic tools · no executed cuts · no replacement access selected</text>
  </g>
  <g id="text_33">
   <text style="font-size: 8px; font-family: 'DejaVu Sans'; text-anchor: start; fill: #58656a" x="89.856" y="342.144" transform="rotate(-0 89.856 342.144)">Source-axis signs are not anatomical orientation labels. Preview acceptance is not clinical clearance.</text>
  </g>
  <g id="legend_1">
   <g id="patch_22">
    <path d="M 97.956 321.513891 
L 115.956 321.513891 
L 115.956 315.213891 
L 97.956 315.213891 
z
" style="fill: #318680; stroke: #318680; stroke-linejoin: miter"/>
   </g>
   <g id="text_34">
    <text style="font-size: 9px; font-family: 'DejaVu Sans'; text-anchor: start" x="123.156" y="321.513891" transform="rotate(-0 123.156 321.513891)">Passed native preview</text>
   </g>
   <g id="patch_23">
    <path d="M 241.633969 321.513891 
L 259.633969 321.513891 
L 259.633969 315.213891 
L 241.633969 315.213891 
z
" style="fill: #bc6a5d; stroke: #bc6a5d; stroke-linejoin: miter"/>
   </g>
   <g id="text_35">
    <text style="font-size: 9px; font-family: 'DejaVu Sans'; text-anchor: start" x="266.833969" y="321.513891" transform="rotate(-0 266.833969 321.513891)">Shaft collision at entry</text>
   </g>
   <g id="patch_24">
    <path d="M 386.082562 321.513891 
L 404.082562 321.513891 
L 404.082562 315.213891 
L 386.082562 315.213891 
z
" style="fill: #dcb460; stroke: #dcb460; stroke-linejoin: miter"/>
   </g>
   <g id="text_36">
    <text style="font-size: 9px; font-family: 'DejaVu Sans'; text-anchor: start" x="411.282562" y="321.513891" transform="rotate(-0 411.282562 321.513891)">Working reach exceeded</text>
   </g>
  </g>
 </g>
 <defs>
  <clipPath id="pe0e31dbe98">
   <rect x="89.856" y="69.12" width="628.992" height="196.992"/>
  </clipPath>
 </defs>
</svg>
